<svg width="1072" height="229" viewBox="0 0 1072 229" fill="none" xmlns="http://www.w3.org/2000/svg">
<path d="M851.008 62L832.508 91H757.008C750.508 91.1667 737.508 95.3001 737.508 110.5V228.5H708.508V110.5C709.508 94.3334 720.608 62.0001 757.008 62H851.008Z" fill="#D9D9D9"/>
<path d="M851.008 62L832.508 91H757.008C750.508 91.1667 737.508 95.3001 737.508 110.5V228.5H708.508V110.5C709.508 94.3334 720.608 62.0001 757.008 62H851.008Z" fill="#FF0F0F"/>
<path d="M851.008 62L832.508 91H757.008C750.508 91.1667 737.508 95.3001 737.508 110.5V228.5H708.508V110.5C709.508 94.3334 720.608 62.0001 757.008 62H851.008Z" fill="url(#paint0_linear_16_2)" fill-opacity="0.2"/>
<path d="M618.508 202.5H665.508V227.5H618.508C574.108 226.7 562.675 191.167 562.508 173.5V91.5H538.008L521.008 65.5H562.508V27.5C562.508 21.5 565.841 17.6667 567.508 16.5L592.008 0V65.5H672.508L660.008 91.5H592.008C591.841 110.167 591.608 152.7 592.008 173.5C592.408 194.3 609.841 201.5 618.508 202.5Z" fill="#D9D9D9"/>
<path d="M618.508 202.5H665.508V227.5H618.508C574.108 226.7 562.675 191.167 562.508 173.5V91.5H538.008L521.008 65.5H562.508V27.5C562.508 21.5 565.841 17.6667 567.508 16.5L592.008 0V65.5H672.508L660.008 91.5H592.008C591.841 110.167 591.608 152.7 592.008 173.5C592.408 194.3 609.841 201.5 618.508 202.5Z" fill="#FF0F0F"/>
<path d="M618.508 202.5H665.508V227.5H618.508C574.108 226.7 562.675 191.167 562.508 173.5V91.5H538.008L521.008 65.5H562.508V27.5C562.508 21.5 565.841 17.6667 567.508 16.5L592.008 0V65.5H672.508L660.008 91.5H592.008C591.841 110.167 591.608 152.7 592.008 173.5C592.408 194.3 609.841 201.5 618.508 202.5Z" fill="url(#paint1_linear_16_2)" fill-opacity="0.2"/>
<path d="M155 228.851L0 4.85076C0 4.85076 36.2463 0.149282 45 12.8507C70.5 49.8508 117.5 120.351 160 180.351C166.552 189.601 188.5 185.851 188.5 185.851L155 228.851Z" fill="#D9D9D9"/>
<path d="M155 228.851L0 4.85076C0 4.85076 36.2463 0.149282 45 12.8507C70.5 49.8508 117.5 120.351 160 180.351C166.552 189.601 188.5 185.851 188.5 185.851L155 228.851Z" fill="#FF0F0F"/>
<path d="M155 228.851L0 4.85076C0 4.85076 36.2463 0.149282 45 12.8507C70.5 49.8508 117.5 120.351 160 180.351C166.552 189.601 188.5 185.851 188.5 185.851L155 228.851Z" fill="url(#paint2_linear_16_2)" fill-opacity="0.2"/>
<path d="M260.5 12.8507C220 71.8505 168.5 151.351 168.5 151.351C168.5 151.351 203.958 155.96 212.5 143.351C254.5 81.3505 304 4.85076 304 4.85076C304 4.85076 269.009 0.454977 260.5 12.8507Z" fill="#D9D9D9"/>
<path d="M260.5 12.8507C220 71.8505 168.5 151.351 168.5 151.351C168.5 151.351 203.958 155.96 212.5 143.351C254.5 81.3505 304 4.85076 304 4.85076C304 4.85076 269.009 0.454977 260.5 12.8507Z" fill="#FF0F0F"/>
<path d="M260.5 12.8507C220 71.8505 168.5 151.351 168.5 151.351C168.5 151.351 203.958 155.96 212.5 143.351C254.5 81.3505 304 4.85076 304 4.85076C304 4.85076 269.009 0.454977 260.5 12.8507Z" fill="url(#paint3_linear_16_2)" fill-opacity="0.2"/>
<path d="M470.008 228.5L487.008 203H372.008C352.341 201.5 312.908 188.1 312.508 146.5C312.108 104.9 352.008 90.5 372.008 88.5H420.008C465.608 88.5 478.341 117.833 479.008 132.5H366.508C354.508 133.7 347.508 147 345.508 153.5H508.508C516.508 78.3 452.841 60.5 420.008 61C408.175 60.8334 382.008 60.6 372.008 61C359.508 61.5 284.008 71.5 283.008 146.5C282.208 206.5 342.008 226.167 372.008 228.5H470.008Z" fill="#D9D9D9"/>
<path d="M470.008 228.5L487.008 203H372.008C352.341 201.5 312.908 188.1 312.508 146.5C312.108 104.9 352.008 90.5 372.008 88.5H420.008C465.608 88.5 478.341 117.833 479.008 132.5H366.508C354.508 133.7 347.508 147 345.508 153.5H508.508C516.508 78.3 452.841 60.5 420.008 61C408.175 60.8334 382.008 60.6 372.008 61C359.508 61.5 284.008 71.5 283.008 146.5C282.208 206.5 342.008 226.167 372.008 228.5H470.008Z" fill="#FF0F0F"/>
<path d="M470.008 228.5L487.008 203H372.008C352.341 201.5 312.908 188.1 312.508 146.5C312.108 104.9 352.008 90.5 372.008 88.5H420.008C465.608 88.5 478.341 117.833 479.008 132.5H366.508C354.508 133.7 347.508 147 345.508 153.5H508.508C516.508 78.3 452.841 60.5 420.008 61C408.175 60.8334 382.008 60.6 372.008 61C359.508 61.5 284.008 71.5 283.008 146.5C282.208 206.5 342.008 226.167 372.008 228.5H470.008Z" fill="url(#paint4_linear_16_2)" fill-opacity="0.2"/>
<path d="M938.508 62.0029C949.32 62.0338 961.134 66.553 972.508 79.2266L1071.51 227.727C1059.51 229.227 1031.41 225.926 1015.01 200.727C998.608 175.527 963.841 123.227 948.508 100.227C946.573 97.554 942.833 94.292 938.254 93.8691C933.675 94.292 929.935 97.554 928 100.227C912.667 123.227 877.9 175.527 861.5 200.727C845.1 225.926 817 229.227 805 227.727L904 79.2266C915.374 66.553 927.187 62.0338 938 62.0029H938.508Z" fill="#D9D9D9"/>
<path d="M938.508 62.0029C949.32 62.0338 961.134 66.553 972.508 79.2266L1071.51 227.727C1059.51 229.227 1031.41 225.926 1015.01 200.727C998.608 175.527 963.841 123.227 948.508 100.227C946.573 97.554 942.833 94.292 938.254 93.8691C933.675 94.292 929.935 97.554 928 100.227C912.667 123.227 877.9 175.527 861.5 200.727C845.1 225.926 817 229.227 805 227.727L904 79.2266C915.374 66.553 927.187 62.0338 938 62.0029H938.508Z" fill="#FF0F0F"/>
<path d="M938.508 62.0029C949.32 62.0338 961.134 66.553 972.508 79.2266L1071.51 227.727C1059.51 229.227 1031.41 225.926 1015.01 200.727C998.608 175.527 963.841 123.227 948.508 100.227C946.573 97.554 942.833 94.292 938.254 93.8691C933.675 94.292 929.935 97.554 928 100.227C912.667 123.227 877.9 175.527 861.5 200.727C845.1 225.926 817 229.227 805 227.727L904 79.2266C915.374 66.553 927.187 62.0338 938 62.0029H938.508Z" fill="url(#paint5_linear_16_2)" fill-opacity="0.2"/>
<defs>
<linearGradient id="paint0_linear_16_2" x1="779.758" y1="62" x2="779.758" y2="228.5" gradientUnits="userSpaceOnUse">
<stop stop-color="#FFB52B"/>
<stop offset="1" stop-color="#8A8A8A"/>
</linearGradient>
<linearGradient id="paint1_linear_16_2" x1="596.758" y1="0" x2="596.758" y2="227.5" gradientUnits="userSpaceOnUse">
<stop stop-color="#FFB52B"/>
<stop offset="1" stop-color="#8A8A8A"/>
</linearGradient>
<linearGradient id="paint2_linear_16_2" x1="152" y1="4" x2="152" y2="228.851" gradientUnits="userSpaceOnUse">
<stop stop-color="#FFB52B"/>
<stop offset="1" stop-color="#8A8A8A"/>
</linearGradient>
<linearGradient id="paint3_linear_16_2" x1="152" y1="4" x2="152" y2="228.851" gradientUnits="userSpaceOnUse">
<stop stop-color="#FFB52B"/>
<stop offset="1" stop-color="#8A8A8A"/>
</linearGradient>
<linearGradient id="paint4_linear_16_2" x1="396.098" y1="60.7792" x2="396.098" y2="228.5" gradientUnits="userSpaceOnUse">
<stop stop-color="#FFB52B"/>
<stop offset="1" stop-color="#8A8A8A"/>
</linearGradient>
<linearGradient id="paint5_linear_16_2" x1="938.254" y1="62.0029" x2="938.254" y2="228.031" gradientUnits="userSpaceOnUse">
<stop stop-color="#FFB52B"/>
<stop offset="1" stop-color="#8A8A8A"/>
</linearGradient>
</defs>
</svg>
