<svg width="775" height="551" viewBox="0 0 775 551" fill="none" xmlns="http://www.w3.org/2000/svg">
<path d="M352.273 523.123L0 0H68.1061C101.924 0 119.773 18.7668 124.47 28.1501L352.273 377.681L441.515 258.043C496 197.989 558.157 233.021 582.424 258.043L775 548.928C758.561 550.491 719.106 552.681 692.803 548.928C666.5 545.174 644.268 512.958 636.439 497.319L507.273 311.997L352.273 523.123Z" fill="#FF0F0F"/>
<path d="M352.273 523.123L0 0H68.1061C101.924 0 119.773 18.7668 124.47 28.1501L352.273 377.681L441.515 258.043C496 197.989 558.157 233.021 582.424 258.043L775 548.928C758.561 550.491 719.106 552.681 692.803 548.928C666.5 545.174 644.268 512.958 636.439 497.319L507.273 311.997L352.273 523.123Z" fill="url(#paint0_linear_15_47)" fill-opacity="0.2"/>
<path d="M598.864 168.901L709.242 0H636.439C610.136 0 589.47 18.7668 582.424 28.1501L507.273 140.751C569.273 138.874 594.167 158.735 598.864 168.901Z" fill="#FF0F0F"/>
<path d="M598.864 168.901L709.242 0H636.439C610.136 0 589.47 18.7668 582.424 28.1501L507.273 140.751C569.273 138.874 594.167 158.735 598.864 168.901Z" fill="url(#paint1_linear_15_47)" fill-opacity="0.2"/>
<defs>
<linearGradient id="paint0_linear_15_47" x1="387.5" y1="0" x2="387.5" y2="551" gradientUnits="userSpaceOnUse">
<stop stop-color="#FFB52B"/>
<stop offset="1" stop-color="#8A8A8A"/>
</linearGradient>
<linearGradient id="paint1_linear_15_47" x1="387.5" y1="0" x2="387.5" y2="551" gradientUnits="userSpaceOnUse">
<stop stop-color="#FFB52B"/>
<stop offset="1" stop-color="#8A8A8A"/>
</linearGradient>
</defs>
</svg>
